<?xml version="1.0" standalone="no"?>
<!DOCTYPE svg PUBLIC "-//W3C//DTD SVG 20010904//EN"
 "http://www.w3.org/TR/2001/REC-SVG-20010904/DTD/svg10.dtd">
<svg version="1.0" xmlns="http://www.w3.org/2000/svg"
 width="318.000000pt" height="318.000000pt" viewBox="0 0 318.000000 318.000000"
 preserveAspectRatio="xMidYMid meet">
<metadata>
Created by potrace 1.11, written by Peter Selinger 2001-2013
</metadata>
<g transform="translate(0.000000,318.000000) scale(0.100000,-0.100000)"
fill="#000000" stroke="none">
<path d="M0 2165 l0 -205 215 0 215 0 0 -580 0 -580 250 0 250 0 0 580 0 580
210 0 210 0 0 -580 0 -580 235 0 235 0 1 473 1 472 23 -90 c13 -49 42 -157 65
-240 22 -82 50 -183 60 -223 11 -39 29 -107 40 -150 11 -42 22 -86 25 -98 3
-11 13 -47 23 -80 l18 -59 191 -3 191 -2 15 62 c9 35 25 98 36 141 12 42 30
110 40 150 11 39 29 108 41 152 12 44 24 87 26 95 2 8 11 42 20 75 9 33 17 65
19 70 1 6 5 17 8 25 3 8 11 40 18 70 6 30 15 62 20 70 5 8 9 -192 9 -447 l0
-463 235 0 235 0 0 785 0 785 -350 0 -349 0 -11 -42 c-6 -24 -15 -59 -20 -78
-9 -34 -48 -195 -70 -295 -17 -72 -17 -73 -38 -155 -11 -41 -27 -109 -37 -150
-9 -41 -19 -82 -21 -90 -2 -8 -7 -31 -12 -50 l-8 -35 -12 55 c-12 53 -28 122
-72 300 -11 47 -29 123 -41 170 -11 47 -21 92 -23 100 -3 8 -12 49 -21 90 -9
41 -20 86 -25 100 -5 14 -11 37 -14 53 l-6 27 -329 0 -329 0 -7 -41 c-9 -52
-40 -105 -84 -144 -55 -49 -81 -59 -156 -59 -77 -1 -128 19 -177 68 -34 35
-68 107 -68 146 l0 30 -450 0 -450 0 0 -205z"/>
</g>
</svg>
