<svg id="Calque_1" data-name="Calque 1" xmlns="http://www.w3.org/2000/svg" viewBox="0 0 589.61 308.98"><defs><style>.cls-1{fill:#fff;stroke:#010000;stroke-linecap:square;stroke-miterlimit:10;stroke-width:0;}</style></defs><polygon class="cls-1" points="256.55 292.56 256.55 87.33 179.28 87.33 179.28 292.56 94.84 292.56 94.84 87.33 18.09 87.33 18.09 16.74 173.99 16.74 174.5 23.44 175.87 29.8 178.09 35.81 181.16 41.48 184.91 46.45 189.34 50.92 194.29 54.87 199.92 57.79 205.89 60.19 212.2 61.57 218.85 62.08 225.5 61.57 231.82 60.19 237.79 57.96 243.25 54.87 248.19 50.92 252.63 46.45 256.55 41.48 259.62 35.98 261.84 29.97 263.2 23.61 263.71 16.92 376.81 16.74 415.87 179.04 416.72 179.04 455.78 16.74 576.03 16.74 576.03 292.56 496.21 292.56 496.21 115.67 495.35 115.67 447.76 292.56 384.82 292.56 337.23 115.67 336.38 115.67 336.38 292.56 256.55 292.56 256.55 292.56"/></svg>